<svg xmlns="http://www.w3.org/2000/svg" width="40.065" height="28" viewBox="0 0 40.065 28">
  <g id="Gruppe_60" data-name="Gruppe 60" transform="translate(-849.201 391.365) rotate(-90)">
    <g id="Gruppe_52" data-name="Gruppe 52" transform="translate(376.206 870.724)">
      <path id="Pfad_160" data-name="Pfad 160" d="M373.59,871.505a63.607,63.607,0,0,1-.191-6.42c.088-2.317.623-4.623.183-6.93a2.56,2.56,0,0,0-4.854-.652c-2.218,4.543-1.61,10.713-.249,15.392.895,3.061,5.3,1.452,5.111-1.39Z" transform="translate(-367.258 -856.008)" fill="#adaca5"/>
    </g>
    <g id="Gruppe_53" data-name="Gruppe 53" transform="translate(365.849 849.201)">
      <path id="Pfad_161" data-name="Pfad 161" d="M370.332,879.779a147.166,147.166,0,0,0,7.677-26.542q-3.476.457-6.948.92c3.89,9.665,7.45,19.6,11.916,29.024.667,1.408,2.3,2.677,3.971,2.277a4.484,4.484,0,0,0,2.456-1.412,3.653,3.653,0,0,0,.506-3.758c-4.543-9.426-7.832-19.406-12.151-28.932-1.463-3.226-6.479-2.757-6.944.913-1.082,8.59-3.421,16.917-5.965,25.174-1.111,3.6,4.121,5.987,5.481,2.336Z" transform="translate(-364.697 -849.201)" fill="#adaca5"/>
    </g>
    <g id="Gruppe_54" data-name="Gruppe 54" transform="translate(368.104 858.051)">
      <path id="Pfad_162" data-name="Pfad 162" d="M367.86,876a17.589,17.589,0,0,1,13.489-1.69c2.874.792,5.976-2.108,3.813-4.9-1.632-2.1-3.432-4.1-4.931-6.284-1.569-2.3-1.83-5.69-2.339-8.319-.667-3.457-5.837-3.681-6.314.008a22.621,22.621,0,0,0,.73,10.1c1.2,3.949,7.175,1.466,5.929-2.479a14.543,14.543,0,0,1-.341-6.772c-2.112,0-4.213.007-6.321.007.631,3.241,1.148,6.695,2.629,9.683,1.452,2.926,3.883,5.375,5.855,7.952q1.9-2.458,3.809-4.9c-4.3-1.214-8.418-1.558-12.693-.1a12.355,12.355,0,0,0-3.494,2.09c-1.03.81-1.177,1.866-1.976,2.779-1.181,1.342.528,3.7,2.156,2.831Z" transform="translate(-365.312 -852.133)" fill="#adaca5"/>
    </g>
    <g id="Gruppe_55" data-name="Gruppe 55" transform="translate(363.365 858.57)">
      <path id="Pfad_163" data-name="Pfad 163" d="M368.242,877.275q2.948,1.875,3.249-.242c.286-.839.638-1.628.9-2.478.939-3.043,2.973-5.569,5.052-7.916,2.31-2.618-1.489-6.1-4.158-4.195q-2.865,2.046-5.665,4.165c-3.212,2.427.491,7.208,3.762,4.931,2.867-1.991,7.054-3.479,8.477-6.922,1.386-3.355-3.106-5.9-5.386-3.168-3.989,4.763-6.515,10.512-10.471,15.3q2.744,1.611,5.481,3.23a91.74,91.74,0,0,1,12.447-22.849c2.031-2.739-1.287-5.551-3.938-3.985-3.116,1.841-4.953,5.936-6.735,8.924a90.682,90.682,0,0,0-7.677,15.4,3.222,3.222,0,0,0,5.481,3.23c3.967-4.788,6.442-10.563,10.38-15.366-1.793-1.06-3.589-2.123-5.386-3.175-.733,1.826-4.858,3.34-6.435,4.458q1.881,2.469,3.762,4.931c1.859-1.433,3.7-2.882,5.514-4.363-1.379-1.4-2.768-2.8-4.15-4.2-2.589,3.318-6.138,8.205-5.683,12.715.172,1.753.48,3.952,2.423,4.466a1.845,1.845,0,0,0,1.7-.693,3.046,3.046,0,0,0,.649-1.712c.374-2.339-3.083-2.721-3.6-.48Z" transform="translate(-363.365 -852.693)" fill="#adaca5"/>
    </g>
  </g>
</svg>
