<svg xmlns="http://www.w3.org/2000/svg" width="8.292" height="50.592" viewBox="0 0 8.292 50.592">
  <g id="Gruppe_61" data-name="Gruppe 61" transform="translate(371.656 899.793) rotate(180)">
    <g id="Gruppe_48" data-name="Gruppe 48">
      <path id="Pfad_156" data-name="Pfad 156" d="M368.786,899c-.585-2.451-.038-4.912-.431-7.345a.67.67,0,0,0-1.271-.171c-1,2.33-.572,5.581.334,7.889.292.738,1.559.426,1.368-.373Z" fill="#adaca5"/>
    </g>
    <g id="Gruppe_49" data-name="Gruppe 49">
      <path id="Pfad_157" data-name="Pfad 157" d="M368.77,887.639c-.028-.216.145-.616.122-.912-.045-.6-.051-1.208-.051-1.807a20.673,20.673,0,0,0-.026-3.691.641.641,0,0,0-1.216-.163,8.94,8.94,0,0,0-.491,3.858,13.842,13.842,0,0,0,.1,1.739,3.411,3.411,0,0,0,.536,1.256.539.539,0,0,0,1.027-.28Z" fill="#adaca5"/>
    </g>
    <g id="Gruppe_50" data-name="Gruppe 50">
      <path id="Pfad_158" data-name="Pfad 158" d="M368.927,878.221a20.352,20.352,0,0,0,.446-3.311,4.012,4.012,0,0,0-.435-2.617.642.642,0,0,0-1.092.137,7.269,7.269,0,0,0-.235,2.665c-.029.977-.194,1.943-.224,2.919a.777.777,0,0,0,1.54.207Z" fill="#adaca5"/>
    </g>
    <g id="Gruppe_51" data-name="Gruppe 51">
      <path id="Pfad_159" data-name="Pfad 159" d="M369.023,870.019c.031-1.156.133-2.313.237-3.464.075-.85.436-1.965.012-2.763a.654.654,0,0,0-1.1-.148c-.622.661-.56,1.833-.638,2.678a12.1,12.1,0,0,0,.131,3.7c.153.708,1.336.82,1.358,0Z" fill="#adaca5"/>
    </g>
    <g id="Gruppe_52" data-name="Gruppe 52">
      <path id="Pfad_160" data-name="Pfad 160" d="M368.985,860.235a17.349,17.349,0,0,1-.052-1.751,8.31,8.31,0,0,0,.05-1.89.7.7,0,0,0-1.324-.178,6.2,6.2,0,0,0-.068,4.2c.244.835,1.445.4,1.394-.379Z" fill="#adaca5"/>
    </g>
    <g id="Gruppe_53" data-name="Gruppe 53">
      <path id="Pfad_161" data-name="Pfad 161" d="M366.234,857.541a40.137,40.137,0,0,0,2.094-7.239l-1.895.251c1.061,2.636,2.032,5.345,3.25,7.916a1.027,1.027,0,0,0,1.083.621,1.223,1.223,0,0,0,.67-.385,1,1,0,0,0,.138-1.025c-1.239-2.571-2.136-5.293-3.314-7.891a1,1,0,0,0-1.894.249,40.631,40.631,0,0,1-1.627,6.866c-.3.983,1.124,1.633,1.495.637Z" fill="#adaca5"/>
    </g>
    <g id="Gruppe_54" data-name="Gruppe 54">
      <path id="Pfad_162" data-name="Pfad 162" d="M366.007,858.643a4.8,4.8,0,0,1,3.679-.461c.784.216,1.63-.575,1.04-1.336-.445-.573-.936-1.117-1.345-1.714a6.171,6.171,0,0,1-.638-2.269.873.873,0,0,0-1.722,0,6.17,6.17,0,0,0,.2,2.754c.326,1.077,1.957.4,1.617-.676a3.967,3.967,0,0,1-.093-1.847l-1.724,0a10.362,10.362,0,0,0,.717,2.641,14.2,14.2,0,0,0,1.6,2.169q.519-.671,1.039-1.337a5.625,5.625,0,0,0-3.462-.028,3.369,3.369,0,0,0-.953.57c-.281.221-.321.509-.539.758-.322.366.144,1.01.588.772Z" fill="#adaca5"/>
    </g>
    <g id="Gruppe_55" data-name="Gruppe 55">
      <path id="Pfad_163" data-name="Pfad 163" d="M364.7,859.4q.8.512.886-.066c.078-.229.174-.444.246-.676A6.07,6.07,0,0,1,367.2,856.5c.63-.714-.406-1.663-1.134-1.144q-.782.558-1.545,1.136c-.876.662.134,1.966,1.026,1.345.782-.543,1.924-.949,2.312-1.888a.863.863,0,0,0-1.469-.864c-1.088,1.3-1.777,2.867-2.856,4.172.5.293,1,.588,1.495.881a25.021,25.021,0,0,1,3.395-6.232c.554-.747-.351-1.514-1.074-1.087a6.559,6.559,0,0,0-1.837,2.434,24.733,24.733,0,0,0-2.094,4.2.879.879,0,0,0,1.495.881c1.082-1.306,1.757-2.881,2.831-4.191-.489-.289-.979-.579-1.469-.866-.2.5-1.325.911-1.755,1.216q.513.673,1.026,1.345c.507-.391,1.008-.786,1.5-1.19-.376-.382-.755-.763-1.132-1.145-.706.9-1.674,2.238-1.55,3.468.047.478.131,1.078.661,1.218A.5.5,0,0,0,365.5,860a.831.831,0,0,0,.177-.467c.1-.638-.841-.742-.981-.131Z" fill="#adaca5"/>
    </g>
  </g>
</svg>
