<svg xmlns="http://www.w3.org/2000/svg" width="159.065" height="30" viewBox="0 0 159.065 30">
  <path id="Pfad_43" data-name="Pfad 43" d="M.02.646a10.439,10.439,0,0,1,7.7,2.819c3.156,3.238.139,7.293-.837,8.269,0,0,5.146,3.759,4.578,8.927C10.365,29.609,0,29.779,0,29.779ZM3.559,25.293s4.227-1.8,4.227-5.6-4.273-5.649-4.273-5.649ZM3.536,10.174S5.92,9.258,5.92,7.33,3.512,4.462,3.512,4.462ZM12.1,29.33,19.466,0l7.2,29.33H22.916l-1.346-5.554H17.4L15.931,29.33ZM20.643,19.9l-1.178-5.6-1.178,5.6ZM120.776,29.33,128.14,0l7.2,29.33h-3.745l-1.346-5.554h-4.166l-1.473,5.554Zm8.542-9.426-1.178-5.6-1.178,5.6Zm-100,9.426V.722S39.262.147,40.115,12.6a11.475,11.475,0,0,1-4.734,9.563l5.066,7.163H36.375l-3.488-4.275V29.33Zm7.166-16.413c0-6.046-3.6-7.405-3.6-7.405V19.281S36.487,18.438,36.487,12.917ZM108.13,29.33V.722S118.071.147,118.923,12.6a11.476,11.476,0,0,1-4.733,9.563l5.065,7.163h-4.071L111.7,25.055V29.33ZM115.3,12.917c0-6.046-3.6-7.405-3.6-7.405V19.281S115.3,18.438,115.3,12.917ZM137.74,29.438H146.7V25.4h-5.257V.782H137.74ZM62.932.466S51.6,3.069,51.6,14.777A14.793,14.793,0,0,0,62.932,29.718V25.629S55.647,22.4,55.647,14.777,62.932,4.629,62.932,4.629Zm3.688,28.863h9.442V25.423H70.353v-13H75.46V8.685H70.353V4.565H75.46V.831H66.619Zm83,0h9.442V25.423h-5.708v-13h5.107V8.685h-5.107V4.565h5.107V.831h-8.841ZM91.084.788H87.434V15.165L79.66.029H79.42v29.3h3.566V15.035L90.849,30h.235Zm2.8,3.827h3.791v24.7h3.744V4.616h3.478V.782H93.881Z" transform="translate(0 0)" fill="#272726"/>
</svg>
