<svg xmlns="http://www.w3.org/2000/svg" width="127.299" height="48.89" viewBox="0 0 127.299 48.89">
  <g id="Gruppe_26" data-name="Gruppe 26" transform="translate(0 0)">
    <g id="Gruppe_24" data-name="Gruppe 24" transform="translate(0 27.097)">
      <path id="Pfad_113" data-name="Pfad 113" d="M8.542,67.066a4.275,4.275,0,0,0-.59.044l-5.291.546V64.522L0,64.8v9.754H7.636c1.5,0,1.98-.424,1.98-1.769V68A.946.946,0,0,0,8.542,67.066ZM6.955,71.994c0,.5-.2.68-.681.68H2.661V69.439l4.294-.378Z" transform="translate(0 -64.522)" fill="#272726"/>
      <path id="Pfad_114" data-name="Pfad 114" d="M53.816,74.268V72.757l-3.6.332v4.974H47.557V70.608h2.661v.561l4.626-.561c.135-.013.378-.029.574-.029a.947.947,0,0,1,1.074.937v2.753Z" transform="translate(-27.585 -68.035)" fill="#272726"/>
      <path id="Pfad_115" data-name="Pfad 115" d="M100.874,78.1H93.542c-.741,0-1.059-.3-1.059-1V71.646c0-.7.318-1,1.059-1h7.332c.726,0,1.044.319,1.044,1v2.887l-.7.681H95.144v1.225h4.112v-.6h2.662V77.1C101.918,77.8,101.6,78.1,100.874,78.1ZM99.256,72.31H95.144v1.317h4.112Z" transform="translate(-53.644 -68.075)" fill="#272726"/>
      <path id="Pfad_116" data-name="Pfad 116" d="M146.561,78.063V72.725l-4.294.379v4.959h-2.66V70.608h2.66v.561l5.262-.546a4.9,4.9,0,0,1,.619-.044.947.947,0,0,1,1.074.937v6.547Z" transform="translate(-80.977 -68.035)" fill="#272726"/>
      <path id="Pfad_117" data-name="Pfad 117" d="M194.117,78.063V72.725l-4.293.379v4.959h-2.661V70.608h2.661v.561l5.261-.546a4.9,4.9,0,0,1,.62-.044.945.945,0,0,1,1.073.937v6.547Z" transform="translate(-108.562 -68.035)" fill="#272726"/>
      <path id="Pfad_118" data-name="Pfad 118" d="M243.111,78.1h-7.333c-.741,0-1.058-.3-1.058-1V71.646c0-.7.317-1,1.058-1h7.333c.726,0,1.043.319,1.043,1v2.887l-.7.681h-6.078v1.225h4.112v-.6h2.661V77.1C244.154,77.8,243.837,78.1,243.111,78.1Zm-1.619-5.792h-4.112v1.317h4.112Z" transform="translate(-136.147 -68.075)" fill="#272726"/>
      <path id="Pfad_119" data-name="Pfad 119" d="M288.1,74.268V72.757l-3.6.332v4.974h-2.661V70.608H284.5v.561l4.627-.561c.136-.013.378-.029.574-.029a.947.947,0,0,1,1.074.937v2.753Z" transform="translate(-163.479 -68.035)" fill="#272726"/>
    </g>
    <path id="Pfad_120" data-name="Pfad 120" d="M140.019,8.337c-1.4,0-2.212,0-2.212-.178,0-.359,5.947-2.063,6.007-5.559,0-1.285-.927-2.6-3.019-2.6-3.475,0-7.775,3.139-10.544,5.4-.024.02-2.676,2.089-4.112,3.547-.183.208-.375.415-.583.619-2.182,2.361-4.094,4.811-4.094,5.229a1.024,1.024,0,0,0,.209.568l.657,1.076c.209.3.329.508.569.508.328,0,.508-.329.807-.867a50.721,50.721,0,0,1,3.316-4.811C133.445,2.749,137.838.9,139.9.9a2.159,2.159,0,0,1,2.3,2.151c-.3,3.914-7.62,4.752-7.62,6.425,0,1.017,2.45.867,4.87,1.017,2.206.086,4.407.533,4.743,2.463h.005s.011.073.023.186c0,.024.008.047.011.071h-.005a4.151,4.151,0,0,1,0,.656h0c0,.01,0,.021-.005.032,0,.053-.011.106-.018.158l-.005,0c-.544,3.264-8.078,6.022-11.506,6.022-1.973,0-3.138-.329-3.138-.926,0,0-.687-1.566,4.019-8.12.055-.076-.05-.091-.081-.095s-.166-.019-.264-.024a.3.3,0,0,0-.18.069c-5.83,5.536-5.077,8.17-5.077,8.17h0c.242.977,1.977,1.643,4.689,1.643a20.026,20.026,0,0,0,11.833-4.84,6.235,6.235,0,0,0,1.666-1.917,4.8,4.8,0,0,0,.569-2.008c0-.081.005-.166.005-.259C146.742,9.413,144.172,8.337,140.019,8.337Z" transform="translate(-70.453)" fill="#272726"/>
    <g id="Gruppe_25" data-name="Gruppe 25" transform="translate(31.532 44.684)">
      <path id="Pfad_121" data-name="Pfad 121" d="M78.131,110.586a3.448,3.448,0,0,1-1.124.2,1.881,1.881,0,0,1-1.388-.49,2.059,2.059,0,0,1-.538-1.5,1.916,1.916,0,0,1,2.024-2.054,2.3,2.3,0,0,1,.919.165l-.142.528a1.785,1.785,0,0,0-.778-.149,1.308,1.308,0,0,0-1.351,1.483c0,.98.531,1.482,1.268,1.482a1.242,1.242,0,0,0,.489-.073v-1.073H76.86V108.6h1.271Z" transform="translate(-75.082 -106.6)" fill="#272726"/>
      <path id="Pfad_122" data-name="Pfad 122" d="M88.976,110.263c0-.34-.01-.627-.024-.878h.561l.026.518h.019a.809.809,0,0,1,.732-.578.662.662,0,0,1,.152.014v.616a.865.865,0,0,0-.181-.016.636.636,0,0,0-.622.562,1.306,1.306,0,0,0-.02.237v1.5h-.644Z" transform="translate(-83.127 -108.096)" fill="#272726"/>
      <path id="Pfad_123" data-name="Pfad 123" d="M98.932,107.3a.37.37,0,0,1-.379-.387.387.387,0,1,1,.385.387Zm-.312,3.319V107.76h.644v2.857Z" transform="translate(-88.696 -106.47)" fill="#272726"/>
      <path id="Pfad_124" data-name="Pfad 124" d="M107.062,106.4h.644v4.146h-.644Z" transform="translate(-93.632 -106.399)" fill="#272726"/>
      <path id="Pfad_125" data-name="Pfad 125" d="M115.414,106.4h.644v4.146h-.644Z" transform="translate(-98.476 -106.399)" fill="#272726"/>
      <path id="Pfad_126" data-name="Pfad 126" d="M131.6,106.849a5.386,5.386,0,0,1,.979-.079,1.622,1.622,0,0,1,1.1.318,1.113,1.113,0,0,1,.359.858,1.218,1.218,0,0,1-.315.879,1.582,1.582,0,0,1-1.163.425,1.633,1.633,0,0,1-.32-.024v1.533H131.6Zm.639,1.864a1.267,1.267,0,0,0,.316.029.739.739,0,0,0,.842-.765c0-.44-.28-.7-.778-.7a1.734,1.734,0,0,0-.381.034Z" transform="translate(-107.865 -106.614)" fill="#272726"/>
      <path id="Pfad_127" data-name="Pfad 127" d="M145.142,111.565a4.384,4.384,0,0,0,.042.677h-.58l-.045-.321h-.016a.945.945,0,0,1-.783.381.812.812,0,0,1-.843-.841c0-.717.627-1.071,1.582-1.069v-.058a.49.49,0,0,0-.556-.543,1.337,1.337,0,0,0-.7.2l-.13-.426a1.859,1.859,0,0,1,.942-.239c.848,0,1.084.553,1.084,1.166Zm-.628-.746c-.449,0-.963.089-.963.573a.391.391,0,0,0,.4.44.557.557,0,0,0,.541-.4.576.576,0,0,0,.02-.157Z" transform="translate(-114.428 -108.096)" fill="#272726"/>
      <path id="Pfad_128" data-name="Pfad 128" d="M154.7,111.633a1.385,1.385,0,0,0,.656.192c.307,0,.456-.144.456-.35s-.115-.316-.45-.457c-.511-.206-.729-.5-.727-.825a.9.9,0,0,1,1-.868,1.442,1.442,0,0,1,.687.164l-.136.461a1.094,1.094,0,0,0-.543-.154c-.258,0-.4.144-.4.324s.126.281.467.428c.474.194.711.459.713.867,0,.533-.4.883-1.078.883a1.587,1.587,0,0,1-.784-.191Z" transform="translate(-121.188 -108.096)" fill="#272726"/>
      <path id="Pfad_129" data-name="Pfad 129" d="M165.767,107.766v.715h.664v.479h-.664v1.391c0,.352.107.512.354.512a.937.937,0,0,0,.261-.029l.016.493a1.492,1.492,0,0,1-.478.066.765.765,0,0,1-.574-.218,1.094,1.094,0,0,1-.214-.778V108.96h-.4v-.479h.4v-.522Z" transform="translate(-127.085 -107.192)" fill="#272726"/>
      <path id="Pfad_130" data-name="Pfad 130" d="M176.787,111.565a4.388,4.388,0,0,0,.042.677h-.58l-.045-.321h-.016a.944.944,0,0,1-.783.381.812.812,0,0,1-.844-.841c0-.717.627-1.071,1.582-1.069v-.058a.49.49,0,0,0-.556-.543,1.337,1.337,0,0,0-.7.2l-.13-.426a1.86,1.86,0,0,1,.943-.239c.847,0,1.084.553,1.084,1.166Zm-.628-.746c-.449,0-.963.089-.963.573a.391.391,0,0,0,.4.44.546.546,0,0,0,.561-.557Z" transform="translate(-132.784 -108.096)" fill="#272726"/>
      <path id="Pfad_131" data-name="Pfad 131" d="M194.49,106.853a4.978,4.978,0,0,1,.95-.083,1.685,1.685,0,0,1,1.069.266.853.853,0,0,1,.358.724.918.918,0,0,1-.644.862v.016a1,1,0,0,1,.783.985,1.054,1.054,0,0,1-.346.8,1.954,1.954,0,0,1-1.366.37,6.048,6.048,0,0,1-.8-.047Zm.639,1.587h.343c.464,0,.749-.255.749-.61,0-.38-.262-.577-.719-.577a1.594,1.594,0,0,0-.372.032Zm0,1.843a1.947,1.947,0,0,0,.346.021c.462,0,.858-.2.858-.7,0-.483-.4-.693-.876-.694h-.327Z" transform="translate(-144.343 -106.614)" fill="#272726"/>
      <path id="Pfad_132" data-name="Pfad 132" d="M208.718,111.565a4.442,4.442,0,0,0,.042.677h-.58l-.045-.321h-.016a.944.944,0,0,1-.783.381.812.812,0,0,1-.843-.841c0-.717.627-1.071,1.582-1.069v-.058a.49.49,0,0,0-.556-.543,1.338,1.338,0,0,0-.7.2l-.131-.426a1.862,1.862,0,0,1,.943-.239c.848,0,1.084.553,1.084,1.166Zm-.629-.746c-.448,0-.963.089-.963.573a.392.392,0,0,0,.4.44.556.556,0,0,0,.541-.4.546.546,0,0,0,.02-.157Z" transform="translate(-151.305 -108.096)" fill="#272726"/>
      <path id="Pfad_133" data-name="Pfad 133" d="M218.549,110.263c0-.34-.01-.627-.024-.878h.561l.026.518h.019a.81.81,0,0,1,.732-.578.664.664,0,0,1,.152.014v.616a.869.869,0,0,0-.181-.016.635.635,0,0,0-.622.562,1.267,1.267,0,0,0-.021.237v1.5h-.643Z" transform="translate(-158.284 -108.096)" fill="#272726"/>
    </g>
  </g>
</svg>
