<svg xmlns="http://www.w3.org/2000/svg" xmlns:xlink="http://www.w3.org/1999/xlink" width="166.696" height="30" viewBox="0 0 166.696 30">
  <defs>
    <clipPath id="clip-path">
      <rect id="Rechteck_7" data-name="Rechteck 7" width="166.696" height="30" fill="#272726"/>
    </clipPath>
  </defs>
  <g id="Gruppe_23" data-name="Gruppe 23" transform="translate(0 0)">
    <g id="Gruppe_22" data-name="Gruppe 22" clip-path="url(#clip-path)">
      <path id="Pfad_103" data-name="Pfad 103" d="M1.531,38h.485l1.007-.814a3.187,3.187,0,0,0,2.362,1.027c2.577,0,3.736-1.861,3.736-4.689,0-2.5-.986-4.742-3.523-4.742a2.737,2.737,0,0,0-2.537,1.528H3.023V24.444L0,24.868V25.2c1.162.02,1.53.332,1.53,1.629Zm1.492-5.443c0-.988.678-3.021,2.188-3.021,1.878,0,2.266,2.46,2.266,3.987,0,1.355-.212,3.933-2.129,3.933-2.286,0-2.325-2.131-2.325-3.446Z" transform="translate(-0.001 -15.658)" fill="#272726"/>
      <path id="Pfad_104" data-name="Pfad 104" d="M41.85,43.6h-.036a3.363,3.363,0,0,1-2.908,2.344c-2.167,0-2.65-1.491-2.65-3.643V38.582c0-1.162-.912-1.22-1.456-1.277v-.331l2.947-.463v6.041c0,1.258.309,2.44,1.625,2.44,1.279,0,2.478-2.384,2.478-3.642V38.582c0-1.162-.89-1.22-1.45-1.277v-.331l2.944-.463v9.218H41.85Z" transform="translate(-22.291 -23.386)" fill="#272726"/>
      <path id="Pfad_105" data-name="Pfad 105" d="M71.889,29.653H70.362v-.659h1.527V27.889c0-1.549.294-3.445,2.772-3.445,2.013,0,2.653,1.16,2.709,2.072H75.746c-.039-.775-.292-1.32-1.22-1.32-1.144,0-1.144,1.339-1.144,2.693v1.105H76v.659H73.383V38H71.889Z" transform="translate(-45.07 -15.658)" fill="#272726"/>
      <path id="Pfad_106" data-name="Pfad 106" d="M95.484,29.653H93.951v-.659h1.533V27.889c0-1.549.292-3.445,2.767-3.445,2.016,0,2.653,1.16,2.711,2.072H99.336c-.038-.775-.291-1.32-1.22-1.32-1.142,0-1.142,1.339-1.142,2.693v1.105h2.613v.659H96.975V38H95.484Z" transform="translate(-60.18 -15.658)" fill="#272726"/>
      <path id="Pfad_107" data-name="Pfad 107" d="M124.626,44.953a5.264,5.264,0,0,1-1.374.234c-2.692,0-4.046-2.731-4.046-4.609v-.407h5.655v-.29a3.052,3.052,0,0,0-3.254-3.368c-2.826,0-3.893,1.645-3.893,4.433,0,3.236,1.666,5,4.515,5a7.631,7.631,0,0,0,2.4-.351Zm-1.451-5.44h-3.95a2.173,2.173,0,0,1,2.132-2.247,1.893,1.893,0,0,1,1.819,2.07Z" transform="translate(-75.401 -23.388)" fill="#272726"/>
      <path id="Pfad_108" data-name="Pfad 108" d="M152.065,40.958a5.479,5.479,0,0,1-1.1.118c-2.593,0-2.767-.915-2.767-2.733V32.515H146.7v-.658h1.491V30.209l1.47-1.3v2.945h2.4v.658h-2.382v6.391c0,1.16.7,1.412,1.648,1.412a4.455,4.455,0,0,0,.735-.078Z" transform="translate(-93.97 -18.52)" fill="#272726"/>
      <path id="Pfad_109" data-name="Pfad 109" d="M384.58,38h.483l1.011-.814a3.177,3.177,0,0,0,2.361,1.027c2.574,0,3.737-1.861,3.737-4.689,0-2.5-.988-4.742-3.525-4.742a2.736,2.736,0,0,0-2.536,1.528h-.036V24.444l-3.023.424V25.2c1.162.02,1.529.332,1.529,1.629Zm1.494-5.443c0-.988.676-3.021,2.186-3.021,1.879,0,2.264,2.46,2.264,3.987,0,1.355-.21,3.933-2.131,3.933-2.283,0-2.32-2.131-2.32-3.446Z" transform="translate(-245.363 -15.658)" fill="#272726"/>
      <path id="Pfad_110" data-name="Pfad 110" d="M424.271,45.732h1.493V39.669c0-1.782-.463-3.156-3.06-3.156-2.557,0-3.311,1.313-3.389,2.457h1.723c.041-.5.135-1.7,1.607-1.7,1.626,0,1.626,1.391,1.626,2.75v.753c-1.259.038-5.073.118-5.073,2.887a2.2,2.2,0,0,0,2.326,2.287,3.457,3.457,0,0,0,2.747-1.453Zm0-3.217c0,.968-.637,2.478-1.954,2.478a1.473,1.473,0,0,1-1.473-1.587c0-1.9,2.614-2.015,3.427-2.034Z" transform="translate(-268.517 -23.388)" fill="#272726"/>
      <path id="Pfad_111" data-name="Pfad 111" d="M449.225,38.641c0-1.22-.91-1.276-1.47-1.335v-.33l2.963-.463v2.3h.04a2.666,2.666,0,0,1,2.576-2.3.548.548,0,0,1,.171.019V38.14a2.453,2.453,0,0,0-.639-.136c-1.877,0-2.149,1.9-2.149,3.077v4.65h-1.492Z" transform="translate(-286.81 -23.388)" fill="#272726"/>
      <path id="Pfad_112" data-name="Pfad 112" d="M191.105,18.2c-.389-.391.178-.48.178-.48s.286-.031.808-.125c-.162.26-.379.606-.634,1.013-.234-.259-.352-.408-.352-.408m37.219-5.405a21.571,21.571,0,0,1,5.932-8.813s.307-.262.515-.129a.544.544,0,0,1,.168.363c.257,2.635-6.358,8.972-6.358,8.972a.194.194,0,0,1-.279-.006c-.092-.092.021-.386.021-.386m18.1-8.556s.345-.28.519-.182c.24.131.07.439.07.439-3.191,6.01-9.076,11.745-9.076,11.745-.1.1-.2.2-.3.3,2-7.453,8.783-12.307,8.783-12.307m16.987,21.9a.493.493,0,0,0-.243-.138,1.729,1.729,0,0,0-.379,0c-11.1,1.116-15.731,1.055-15.731,1.055a17.118,17.118,0,0,1-7.363-1.367c-3.167-1.426-2.537-6.455-2.537-6.455,1.575-1.457,3.253-3.16,5.035-5.149,0,0,8.262-8.818,5.31-11.3,0,0-.963-.87-2.873.656,0,0-8.387,6.85-9,15.137-7.364,7.205-8.889,6.273-8.889,6.273-2.434-1.341.754-9.464.754-9.464.1-.231.465-.215.752-.215a.617.617,0,0,0,.433-.162c5.135-4.448,6.807-7.859,6.807-7.859,1.886-4-.4-4.327-.4-4.327-3.846-.582-7.6,7.77-7.6,7.77s-6.358,12.457-1.138,15.2a.136.136,0,0,1,.047.13.3.3,0,0,1-.194.228c-10.908,3.2-8.221-5.6-8.221-5.6s.279-.766.023-.938c-.282-.194-.585-.439-.653-.469a.794.794,0,0,0-.731.171c-3.228,2.809-6.3,5.876-6.3,5.876s-.281.276-.541.153c-.286-.13-.075-.573-.075-.573a54.612,54.612,0,0,0,2.127-6.076c1.24-4.247.179-6.314.179-6.314a.407.407,0,0,0-.461-.231c-.155.051-.2.456-.2.456a34.28,34.28,0,0,1-1.07,4.68c-.645,2.124-2.788,6.034-2.594,8.278h-.034a22.331,22.331,0,0,1-14.893-5.676c.7-1.026,1.344-1.99,1.935-2.9,4.969-1.375,14.643-5.175,24.24-15.311a2.006,2.006,0,0,0,.309-1.255c0-.675-.426-.339-.426-.339-10.877,9.647-18.448,13.735-23.2,15.444,6.449-10.3,5.436-12.8,5.436-12.8-.107-.4-.236-.533-.463-.533s-.443.609-.443.609a79.326,79.326,0,0,1-7.227,13.538,9.347,9.347,0,0,1-3.621.325c-.32-.028-.5-.43-.765-.161a.583.583,0,0,0,.04.819s.912.973,2.281,2.249c-1.664,2.671-4.21,6.832-5.6,9.375,0,0-.484.858-.222,1,.3.167.413-.126.538-.289,2.607-3.358,4.776-6.314,6.587-8.915A25.067,25.067,0,0,0,198.5,25.06a27.625,27.625,0,0,0,9.625,1.625,1.8,1.8,0,0,0,1.109.537s1.472.324,3.311-2.068a30.552,30.552,0,0,1,3.342-3.318s.419,6.349,6.217,6.118c0,0,5.006.029,13.532-7.355a12.292,12.292,0,0,0,.242,1.587s1.465,6.786,12.069,6.1a112.231,112.231,0,0,0,13.727-1.745s1.072-.169,1.384-.169a1.377,1.377,0,0,1,.2.018.191.191,0,0,0,.165-.039s.123-.08-.014-.216" transform="translate(-118.478 -0.001)" fill="#272726"/>
    </g>
  </g>
</svg>
