<svg xmlns="http://www.w3.org/2000/svg" width="233.661" height="40" viewBox="0 0 233.661 40">
  <g id="Gruppe_4" data-name="Gruppe 4" transform="translate(0 0)">
    <g id="Gruppe_2" data-name="Gruppe 2">
      <path id="Pfad_1" data-name="Pfad 1" d="M14.143,4.21a6.967,6.967,0,0,0-.976.074l-8.761.9V0L0,.454V16.6H12.642c2.477,0,3.279-.7,3.279-2.93V5.762A1.568,1.568,0,0,0,14.143,4.21Zm-2.627,8.157c0,.829-.326,1.128-1.128,1.128H4.405V8.139l7.11-.628Z" fill="#b32625"/>
      <path id="Pfad_2" data-name="Pfad 2" d="M32.38,8.91v-2.5l-5.958.551v8.235H22.016V2.85h4.405v.93l7.659-.93c.224-.021.626-.047.951-.047a1.567,1.567,0,0,1,1.778,1.552V8.91Z" transform="translate(14.915 1.407)" fill="#b32625"/>
      <path id="Pfad_3" data-name="Pfad 3" d="M56.706,15.179H44.567c-1.227,0-1.753-.5-1.753-1.655V4.489c0-1.151.526-1.655,1.753-1.655H56.706c1.2,0,1.729.529,1.729,1.655V9.27l-1.152,1.125H47.221v2.029h6.807v-1h4.407v2.1C58.435,14.677,57.909,15.179,56.706,15.179Zm-2.678-9.59H47.221V7.768h6.807Z" transform="translate(29.036 1.423)" fill="#b32625"/>
      <path id="Pfad_4" data-name="Pfad 4" d="M76.143,15.194V6.355l-7.11.628v8.211h-4.4V2.85h4.4v.93l8.711-.9A8,8,0,0,1,78.772,2.8,1.567,1.567,0,0,1,80.55,4.355v10.84Z" transform="translate(43.849 1.407)" fill="#b32625"/>
      <path id="Pfad_5" data-name="Pfad 5" d="M98.158,15.194V6.355l-7.107.628v8.211H86.645V2.85H91.05v.93l8.71-.9a7.943,7.943,0,0,1,1.027-.074,1.566,1.566,0,0,1,1.775,1.552v10.84Z" transform="translate(58.786 1.407)" fill="#b32625"/>
      <path id="Pfad_6" data-name="Pfad 6" d="M122.552,15.179H110.41c-1.224,0-1.75-.5-1.75-1.655V4.489c0-1.151.526-1.655,1.75-1.655h12.142c1.2,0,1.726.529,1.726,1.655V9.27l-1.151,1.125H113.065v2.029h6.808v-1h4.4v2.1C124.278,14.677,123.756,15.179,122.552,15.179Zm-2.678-9.59h-6.808V7.768h6.808Z" transform="translate(73.693 1.423)" fill="#b32625"/>
      <path id="Pfad_7" data-name="Pfad 7" d="M140.837,8.91v-2.5l-5.958.551v8.235h-4.4V2.85h4.4v.93l7.662-.93c.225-.021.625-.047.951-.047a1.569,1.569,0,0,1,1.778,1.552V8.91Z" transform="translate(88.391 1.407)" fill="#b32625"/>
    </g>
    <g id="Gruppe_3" data-name="Gruppe 3" transform="translate(63.216 33.035)">
      <path id="Pfad_8" data-name="Pfad 8" d="M39.806,25.9a5.706,5.706,0,0,1-1.861.329,3.1,3.1,0,0,1-2.3-.811,3.4,3.4,0,0,1-.891-2.475,3.171,3.171,0,0,1,3.352-3.4,3.8,3.8,0,0,1,1.522.273l-.234.874a2.977,2.977,0,0,0-1.287-.245A2.163,2.163,0,0,0,35.874,22.9c0,1.622.877,2.453,2.1,2.453a2.045,2.045,0,0,0,.81-.12V23.457H37.7V22.61h2.1Z" transform="translate(-34.758 -19.304)" fill="#b32625"/>
      <path id="Pfad_9" data-name="Pfad 9" d="M41.218,22.293c0-.563-.017-1.036-.039-1.452h.928l.044.856h.032a1.34,1.34,0,0,1,1.212-.955,1.072,1.072,0,0,1,.252.023v1.018a1.539,1.539,0,0,0-.3-.026,1.054,1.054,0,0,0-1.03.931,2.081,2.081,0,0,0-.033.394v2.487H41.218Z" transform="translate(-31.535 -18.704)" fill="#b32625"/>
      <path id="Pfad_10" data-name="Pfad 10" d="M46.251,20.726a.615.615,0,0,1-.628-.641.623.623,0,0,1,.643-.643.642.642,0,1,1-.006,1.284Zm-.517,5.494V21.492H46.8V26.22Z" transform="translate(-29.304 -19.356)" fill="#b32625"/>
      <path id="Pfad_11" data-name="Pfad 11" d="M49.563,19.385h1.066v6.864H49.563Z" transform="translate(-27.326 -19.385)" fill="#b32625"/>
      <path id="Pfad_12" data-name="Pfad 12" d="M53.429,19.385H54.5v6.864H53.429Z" transform="translate(-25.385 -19.385)" fill="#b32625"/>
      <path id="Pfad_13" data-name="Pfad 13" d="M60.923,19.689a8.847,8.847,0,0,1,1.621-.132,2.693,2.693,0,0,1,1.82.527,1.841,1.841,0,0,1,.595,1.421,2.023,2.023,0,0,1-.523,1.457,2.62,2.62,0,0,1-1.926.7,2.8,2.8,0,0,1-.53-.039v2.535H60.923Zm1.057,3.085a2.073,2.073,0,0,0,.524.05,1.225,1.225,0,0,0,1.4-1.268c0-.728-.464-1.167-1.289-1.167a2.936,2.936,0,0,0-.631.059Z" transform="translate(-21.624 -19.299)" fill="#b32625"/>
      <path id="Pfad_14" data-name="Pfad 14" d="M69.845,24.449a7.279,7.279,0,0,0,.071,1.119h-.963l-.074-.53h-.026a1.561,1.561,0,0,1-1.3.631,1.343,1.343,0,0,1-1.4-1.391c0-1.187,1.038-1.774,2.618-1.769v-.1a.811.811,0,0,0-.919-.9,2.219,2.219,0,0,0-1.154.329l-.215-.707a3.089,3.089,0,0,1,1.561-.392c1.4,0,1.793.915,1.793,1.93Zm-1.039-1.235c-.742-.009-1.6.146-1.6.948a.647.647,0,0,0,.667.727.919.919,0,0,0,.9-.664.881.881,0,0,0,.033-.257Z" transform="translate(-18.994 -18.704)" fill="#b32625"/>
      <path id="Pfad_15" data-name="Pfad 15" d="M71.78,24.561a2.283,2.283,0,0,0,1.086.317c.509,0,.755-.237.755-.578s-.191-.523-.745-.757c-.847-.341-1.208-.822-1.2-1.367a1.492,1.492,0,0,1,1.658-1.434,2.389,2.389,0,0,1,1.14.27l-.224.763a1.821,1.821,0,0,0-.9-.255c-.427,0-.656.237-.656.536s.207.466.771.709c.787.321,1.178.76,1.181,1.434,0,.885-.667,1.463-1.784,1.463a2.632,2.632,0,0,1-1.3-.315Z" transform="translate(-16.286 -18.704)" fill="#b32625"/>
      <path id="Pfad_16" data-name="Pfad 16" d="M77.968,20.018V21.2h1.1V22h-1.1v2.3c0,.584.179.85.589.85a1.58,1.58,0,0,0,.431-.051l.027.816a2.45,2.45,0,0,1-.792.111,1.271,1.271,0,0,1-.951-.36,1.818,1.818,0,0,1-.353-1.289V22h-.656V21.2h.656v-.864Z" transform="translate(-13.923 -19.067)" fill="#b32625"/>
      <path id="Pfad_17" data-name="Pfad 17" d="M84.5,24.449a7.125,7.125,0,0,0,.068,1.119h-.96l-.075-.53H83.5a1.56,1.56,0,0,1-1.3.631,1.344,1.344,0,0,1-1.4-1.391c0-1.187,1.039-1.774,2.619-1.769v-.1a.812.812,0,0,0-.921-.9,2.224,2.224,0,0,0-1.154.329l-.215-.707a3.093,3.093,0,0,1,1.561-.392c1.4,0,1.8.915,1.8,1.93Zm-1.042-1.235c-.74-.009-1.594.146-1.594.948a.648.648,0,0,0,.665.727.919.919,0,0,0,.9-.664.933.933,0,0,0,.032-.257Z" transform="translate(-11.641 -18.704)" fill="#b32625"/>
      <path id="Pfad_18" data-name="Pfad 18" d="M90.035,19.694a8.315,8.315,0,0,1,1.574-.137A2.782,2.782,0,0,1,93.378,20a1.406,1.406,0,0,1,.593,1.2,1.521,1.521,0,0,1-1.066,1.428v.026a1.648,1.648,0,0,1,1.3,1.631,1.749,1.749,0,0,1-.574,1.329,3.24,3.24,0,0,1-2.26.613,9.778,9.778,0,0,1-1.334-.08Zm1.059,2.63h.568c.768,0,1.241-.422,1.241-1.011,0-.628-.434-.957-1.193-.957a2.571,2.571,0,0,0-.616.053Zm0,3.052a3.436,3.436,0,0,0,.572.033c.766,0,1.419-.326,1.419-1.155,0-.8-.659-1.146-1.451-1.148h-.541Z" transform="translate(-7.01 -19.299)" fill="#b32625"/>
      <path id="Pfad_19" data-name="Pfad 19" d="M99.278,24.449a7.712,7.712,0,0,0,.068,1.119h-.96l-.075-.53h-.024a1.565,1.565,0,0,1-1.3.631,1.345,1.345,0,0,1-1.4-1.391c0-1.187,1.041-1.774,2.621-1.769v-.1a.813.813,0,0,0-.921-.9,2.218,2.218,0,0,0-1.152.329l-.218-.707a3.1,3.1,0,0,1,1.562-.392c1.4,0,1.795.915,1.795,1.93Zm-1.039-1.235c-.742-.009-1.6.146-1.6.948a.647.647,0,0,0,.667.727.918.918,0,0,0,.9-.664.881.881,0,0,0,.033-.257Z" transform="translate(-4.221 -18.704)" fill="#b32625"/>
      <path id="Pfad_20" data-name="Pfad 20" d="M101.2,22.293c0-.563-.015-1.036-.036-1.452h.927l.044.856h.03a1.345,1.345,0,0,1,1.214-.955,1.043,1.043,0,0,1,.251.023v1.018a1.539,1.539,0,0,0-.3-.026,1.053,1.053,0,0,0-1.029.931,1.957,1.957,0,0,0-.035.394v2.487H101.2Z" transform="translate(-1.423 -18.704)" fill="#b32625"/>
    </g>
  </g>
</svg>
