<svg id="Map_Marker" data-name="Map Marker" xmlns="http://www.w3.org/2000/svg" width="73.284" height="75.171" viewBox="0 0 73.284 75.171">
  <path id="Pfad_144" data-name="Pfad 144" d="M175.256,24.168c-4.071,0-6.411,0-6.411-.517,0-1.04,17.239-5.98,17.415-16.116,0-3.725-2.687-7.535-8.751-7.535-10.073,0-22.54,9.1-30.566,15.643-.069.057-7.758,6.057-11.921,10.282-.531.6-1.087,1.2-1.69,1.8-6.325,6.843-11.868,13.947-11.868,15.16a2.968,2.968,0,0,0,.605,1.646l1.905,3.119c.606.867.954,1.473,1.648,1.473.951,0,1.472-.953,2.339-2.514a147.039,147.039,0,0,1,9.613-13.946C156.2,7.97,168.933,2.6,174.911,2.6c3.55,0,6.669,2.339,6.669,6.237-.868,11.347-22.091,13.776-22.091,18.625,0,2.947,7.1,2.513,14.118,2.947,6.394.248,12.775,1.545,13.751,7.139l.016,0s.033.213.066.541c.007.071.024.135.033.206l-.016,0a12.027,12.027,0,0,1,.011,1.9h0c0,.03-.012.061-.016.093-.013.155-.033.307-.052.458l-.016.009c-1.578,9.461-23.417,17.459-33.355,17.459-5.718,0-9.1-.953-9.1-2.685,0,0-1.993-4.539,11.651-23.541.158-.22-.144-.264-.234-.275s-.482-.056-.765-.069a.855.855,0,0,0-.521.2c-16.9,16.05-14.719,23.685-14.719,23.685h0c.7,2.832,5.731,4.764,13.593,4.764,7.882,0,23.3-4.159,34.3-14.031a18.075,18.075,0,0,0,4.831-5.557,13.9,13.9,0,0,0,1.651-5.822c.011-.234.015-.481.015-.75C194.747,27.287,187.3,24.168,175.256,24.168Z" transform="translate(-121.463)" fill="#b32625"/>
  <path id="Pfad_145" data-name="Pfad 145" d="M8.02,0l2.121,10.582L0,8.46Z" transform="translate(41.704 60.518) rotate(45)" fill="#b32625"/>
</svg>
