<svg xmlns="http://www.w3.org/2000/svg" width="17.085" height="14.05" viewBox="0 0 17.085 14.05">
  <path id="Pfad_166" data-name="Pfad 166" d="M850.451,969.094c-1.512-3.471-4.92-5.19-8.845-4.932-3.53.234-7.223,2.381-7.651,6.133-.989,8.7,16.73,11.234,16.942,2.342.159-.306-.035-.944.1-1.265m-15.12-.366a5.619,5.619,0,0,0,.669,1.482,8.2,8.2,0,0,0,2.988,2.705c.15.106.3.215.463.309C837.768,974.6,835.976,973,835.88,971.006Zm5.675,1.115c-.785-.717-.841-1.369-.517-1.863a3.287,3.287,0,0,0,2.36,2.453C842.93,972.912,842.3,972.8,841.555,972.121Zm4.5,2.4a5.208,5.208,0,0,0,.416-.567c.056-.092.1-.183.15-.275a4.684,4.684,0,0,0,.553.373A4.765,4.765,0,0,1,846.051,974.516Zm1.986-2.182a3.309,3.309,0,0,1-.439-.416,5.2,5.2,0,0,0-.651-2.758.831.831,0,0,0-.752-.461,4.951,4.951,0,0,0-2.713-1.316,4.29,4.29,0,0,0-1.412-.418.935.935,0,0,0-.834.473c-2.172.621-2.684,3.027-1.916,4.921-1.054-1.613-1.191-3.923.556-5.027C842.985,965.367,848.791,968.66,848.037,972.334Z" transform="translate(-833.915 -964.137)" fill="#b32625"/>
</svg>
