<svg xmlns="http://www.w3.org/2000/svg" width="92.821" height="14.853" viewBox="0 0 92.821 14.853">
  <g id="Gruppe_11" data-name="Gruppe 11" transform="translate(0 0)">
    <g id="Gruppe_7" data-name="Gruppe 7" transform="translate(0 0.164)">
      <path id="Pfad_44" data-name="Pfad 44" d="M0,7.182H3.586V9.115h.04C4.065,7.5,5.62,7.022,7.354,7.022c2.79,0,3.885,1.2,3.885,4.007,0,.26-.019.539-.038.9H7.892c0-1.293-.3-1.912-1.834-1.912-1.315,0-2.232.5-2.232,1.713v5.623H0Z" transform="translate(0 -2.916)" fill="#272726"/>
      <path id="Pfad_45" data-name="Pfad 45" d="M26.858,3.26H23.031V.27h3.827Zm0,11.441H23.031V4.536h3.827Z" transform="translate(-9.026 -0.27)" fill="#272726"/>
      <path id="Pfad_46" data-name="Pfad 46" d="M32.852,7.285h4.166l3.109,7.175,3.108-7.175H47.4L42.519,17.451H37.735Z" transform="translate(-12.876 -3.019)" fill="#272726"/>
      <path id="Pfad_47" data-name="Pfad 47" d="M58.9,13.778c0-2.769,1.913-2.93,5.62-2.93,2.092,0,3.248.06,3.986.819v-.9c0-.995-.3-1.355-1.793-1.355H64.459c-1.116,0-1.434.1-1.473.818H59.278c0-2.75,1.355-3.209,4.583-3.209h4.445c2.63,0,4.025,1.256,4.025,3.647v6.679H68.7V16.19c-1.055,1.1-1.455,1.316-3.368,1.316h-2.61c-2.333.02-3.827-.5-3.827-2.891Zm6.817,1.336c2.63,0,2.869-.4,2.869-1.077,0-.758-.22-1.035-2.332-1.035H64.56c-1.616,0-1.954.358-1.954,1.194,0,.658.519.918,2.013.918Z" transform="translate(-23.084 -2.916)" fill="#272726"/>
    </g>
    <g id="Gruppe_10" data-name="Gruppe 10" transform="translate(58.633)">
      <g id="Gruppe_8" data-name="Gruppe 8">
        <path id="Pfad_48" data-name="Pfad 48" d="M98.372,8.371H96.424v-2.8h1.948V3.136h3.9V5.571h6.046v2.8h-6.046v3.976c0,.771.568.933,1.5.933,1.257,0,1.6-.284,1.6-1.237v-.69h3.408v1.258c0,1.969-1.3,3.47-4.4,3.47h-1.541c-2.395,0-4.464-.751-4.464-3.612Z" transform="translate(-96.424 -1.229)" fill="#272726"/>
        <path id="Pfad_49" data-name="Pfad 49" d="M119.281,13.752c0-2.82,1.948-2.982,5.722-2.982,2.129,0,3.308.06,4.058.832v-.914c0-1.014-.305-1.379-1.828-1.379h-2.292c-1.136,0-1.46.1-1.5.832h-3.774c0-2.8,1.38-3.267,4.668-3.267h4.525c2.678,0,4.1,1.278,4.1,3.713v6.8h-3.693V16.207c-1.074,1.116-1.481,1.34-3.428,1.34h-2.658c-2.374.02-3.9-.507-3.9-2.943Zm6.938,1.36c2.679,0,2.923-.406,2.923-1.1,0-.77-.224-1.054-2.374-1.054h-1.724c-1.644,0-1.99.364-1.99,1.217,0,.669.528.933,2.05.933Z" transform="translate(-105.382 -2.694)" fill="#272726"/>
        <path id="Pfad_50" data-name="Pfad 50" d="M146.24,0h3.9V14.69h-3.9Z" transform="translate(-115.948)" fill="#272726"/>
      </g>
      <g id="Gruppe_9" data-name="Gruppe 9">
        <path id="Pfad_51" data-name="Pfad 51" d="M98.372,8.371H96.424v-2.8h1.948V3.136h3.9V5.571h6.046v2.8h-6.046v3.976c0,.771.568.933,1.5.933,1.257,0,1.6-.284,1.6-1.237v-.69h3.408v1.258c0,1.969-1.3,3.47-4.4,3.47h-1.541c-2.395,0-4.464-.751-4.464-3.612Z" transform="translate(-96.424 -1.229)" fill="#272726"/>
        <path id="Pfad_52" data-name="Pfad 52" d="M119.281,13.752c0-2.82,1.948-2.982,5.722-2.982,2.129,0,3.308.06,4.058.832v-.914c0-1.014-.305-1.379-1.828-1.379h-2.292c-1.136,0-1.46.1-1.5.832h-3.774c0-2.8,1.38-3.267,4.668-3.267h4.525c2.678,0,4.1,1.278,4.1,3.713v6.8h-3.693V16.207c-1.074,1.116-1.481,1.34-3.428,1.34h-2.658c-2.374.02-3.9-.507-3.9-2.943Zm6.938,1.36c2.679,0,2.923-.406,2.923-1.1,0-.77-.224-1.054-2.374-1.054h-1.724c-1.644,0-1.99.364-1.99,1.217,0,.669.528.933,2.05.933Z" transform="translate(-105.382 -2.694)" fill="#272726"/>
        <path id="Pfad_53" data-name="Pfad 53" d="M146.24,0h3.9V14.69h-3.9Z" transform="translate(-115.948)" fill="#272726"/>
      </g>
    </g>
  </g>
</svg>
