<svg xmlns="http://www.w3.org/2000/svg" width="209.037" height="18.67" viewBox="0 0 209.037 18.67">
  <g id="Gruppe_15" data-name="Gruppe 15" transform="translate(0 0)">
    <g id="Gruppe_13" data-name="Gruppe 13">
      <path id="Pfad_54" data-name="Pfad 54" d="M0,7.311H3.737V9.325h.042c.456-1.683,2.076-2.181,3.883-2.181,2.907,0,4.049,1.248,4.049,4.175,0,.27-.021.561-.041.933H8.223c0-1.347-.311-1.992-1.91-1.992-1.372,0-2.326.52-2.326,1.785V17.9H0Z" transform="translate(0 -2.866)" fill="#272726"/>
      <path id="Pfad_55" data-name="Pfad 55" d="M27.433,3.386H23.446V.27h3.987Zm0,11.92H23.446V4.715h3.987Z" transform="translate(-8.854 -0.27)" fill="#272726"/>
      <path id="Pfad_56" data-name="Pfad 56" d="M33.444,7.412h4.34l3.24,7.475,3.239-7.475H48.6L43.517,18H38.532Z" transform="translate(-12.63 -2.967)" fill="#272726"/>
      <path id="Pfad_57" data-name="Pfad 57" d="M59.961,14.184c0-2.885,1.993-3.052,5.856-3.052,2.18,0,3.385.062,4.153.852v-.935c0-1.037-.311-1.413-1.868-1.413H65.755c-1.163,0-1.5.1-1.536.853H60.356c0-2.865,1.412-3.344,4.775-3.344h4.631c2.741,0,4.2,1.308,4.2,3.8V17.9H70.177V16.7c-1.1,1.143-1.515,1.371-3.509,1.371h-2.72c-2.43.022-3.987-.518-3.987-3.012Zm7.1,1.393c2.741,0,2.99-.416,2.99-1.123,0-.789-.228-1.08-2.43-1.08H65.859c-1.683,0-2.036.373-2.036,1.246,0,.685.541.957,2.1.957Z" transform="translate(-22.644 -2.866)" fill="#272726"/>
    </g>
    <g id="Gruppe_14" data-name="Gruppe 14" transform="translate(61.683 0.019)">
      <path id="Pfad_58" data-name="Pfad 58" d="M103.2,14.566c0,.58.207.973,2.461.973h1.407c1.881,0,2.357-.145,2.357-.785,0-.621-.31-.869-1.716-.869h-3.722c-3.7-.02-4.8-.826-4.8-3.721,0-2.626,2.109-3.02,4.839-3.02H106.8c5.19,0,6.1.724,6.141,3.206h-3.97c-.207-.62-.579-.724-2.957-.724-2.3,0-2.73.063-2.73.786,0,.456.31.62,2.378.62h2.75c4.756,0,5.108,1.593,5.108,3.473,0,2.793-1.117,3.516-5.645,3.516h-3.763c-3.66,0-5-.848-5-3.455Z" transform="translate(-99.111 -2.885)" fill="#272726"/>
      <path id="Pfad_59" data-name="Pfad 59" d="M126.056,12c0-3.991,1.985-4.859,4.88-4.859H135.4c2.936,0,4.735,1.075,4.735,3.5v.952h-3.846c0-1.076-.558-1.469-2.3-1.469h-1.53c-1.654,0-2.44.454-2.44,1.613V13.14c0,1.364.869,1.779,2.11,1.779h2.026c1.117,0,2.13-.248,2.13-1.22V13.45h3.846v.93c0,2.833-2.357,3.64-4.632,3.64h-4.053c-2.626,0-5.4-.5-5.4-5Z" transform="translate(-109.286 -2.885)" fill="#272726"/>
      <path id="Pfad_60" data-name="Pfad 60" d="M153.1.3h3.971V6.421h.041c.7-1.468,2.089-1.861,4.218-1.861,2.461,0,5.894.1,5.894,4.653v6.058h-3.971V9.213c0-1.034-.827-1.552-2.564-1.552h-.911c-1.7,0-2.709.785-2.709,2.3v5.314H153.1Z" transform="translate(-119.5 -0.3)" fill="#272726"/>
      <path id="Pfad_61" data-name="Pfad 61" d="M179.018,7.411h4.343l2.4,7.692h.042l2.77-7.692h3.64l2.771,7.692h.042l2.4-7.692h4.343l-4.053,10.545h-5.294l-2.006-5.707h-.041l-2.006,5.707h-5.294Z" transform="translate(-129.287 -2.985)" fill="#272726"/>
      <path id="Pfad_62" data-name="Pfad 62" d="M217.727,14.153c0-2.873,1.986-3.039,5.832-3.039,2.171,0,3.371.062,4.136.848v-.931c0-1.034-.311-1.406-1.861-1.406H223.5c-1.157,0-1.488.1-1.529.848H218.12c0-2.854,1.407-3.33,4.756-3.33h4.612c2.729,0,4.177,1.3,4.177,3.785v6.927H227.9v-1.2c-1.1,1.138-1.51,1.365-3.495,1.365H221.7c-2.418.021-3.971-.518-3.971-3Zm7.073,1.386c2.729,0,2.977-.413,2.977-1.116,0-.787-.227-1.076-2.419-1.076H223.6c-1.675,0-2.028.372-2.028,1.241,0,.682.538.951,2.09.951Z" transform="translate(-143.905 -2.885)" fill="#272726"/>
      <path id="Pfad_63" data-name="Pfad 63" d="M245.04.3h3.97V6.669h.041c.248-1.654,1.923-2.109,3.557-2.109h1.179c5.025,0,5.645,1.8,5.645,4.487v1.9c0,2.689-.62,4.488-5.645,4.488h-1.158c-2.4,0-3.391-.807-3.825-2.11h-.042v1.945H245.04Zm3.721,10.215c0,1.593.828,1.944,2.4,1.944H253.5c1.9,0,2.088-.662,2.088-1.84V9.378c0-1.178-.186-1.84-2.088-1.84H251.16c-1.571,0-2.4.352-2.4,1.943Z" transform="translate(-154.219 -0.3)" fill="#272726"/>
      <path id="Pfad_64" data-name="Pfad 64" d="M277.283,3.4h-3.971V.3h3.971Zm0,11.869h-3.971V4.726h3.971Z" transform="translate(-164.896 -0.3)" fill="#272726"/>
      <path id="Pfad_65" data-name="Pfad 65" d="M285.275,7.31h3.97v1.7h.042c.7-1.468,2.088-1.861,4.218-1.861,2.461,0,5.894.1,5.894,4.653v6.058h-3.97V11.8c0-1.034-.827-1.552-2.564-1.552h-.911c-1.7,0-2.709.785-2.709,2.3v5.314h-3.97Z" transform="translate(-169.414 -2.885)" fill="#272726"/>
      <path id="Pfad_66" data-name="Pfad 66" d="M312.752,11.28c0-3.267,1.675-4.136,4.839-4.136h2.316c2.006,0,2.481.248,3.474,1.613h.041V7.31h3.722v9.883c0,2.192-.7,4.343-5.687,4.343h-4.384c-2.667,0-4.177-.642-4.177-3.289h4.095c0,.5.331.806.973.806h2.874c1.736,0,2.584-.558,2.584-2.336v-.7c-.785.786-1.448,1.1-3.556,1.1h-2.089c-3.847,0-5.025-1.53-5.025-4.383Zm8.209,2.977c1.965,0,2.42-.517,2.42-2.109,0-1.613-.454-2.151-2.42-2.151h-1.944c-1.964,0-2.419.538-2.419,2.151,0,1.593.455,2.109,2.419,2.109Z" transform="translate(-179.79 -2.885)" fill="#272726"/>
    </g>
  </g>
</svg>
